<?xml version="1.0" encoding="UTF-8" standalone="no"?>
<svg
   xmlns:dc="http://purl.org/dc/elements/1.1/"
   xmlns:cc="http://creativecommons.org/ns#"
   xmlns:rdf="http://www.w3.org/1999/02/22-rdf-syntax-ns#"
   xmlns:svg="http://www.w3.org/2000/svg"
   xmlns="http://www.w3.org/2000/svg"
   xmlns:sodipodi="http://sodipodi.sourceforge.net/DTD/sodipodi-0.dtd"
   xmlns:inkscape="http://www.inkscape.org/namespaces/inkscape"
   height="803.09998"
   width="1197.8285"
   xml:space="preserve"
   viewBox="0 0 1197.8284 803.09996"
   y="0px"
   x="0px"
   id="Layer_1"
   version="1.1"
   inkscape:version="0.91 r13725"
   sodipodi:docname="screen_hello.svg"><sodipodi:namedview
     pagecolor="#ffffff"
     bordercolor="#666666"
     borderopacity="1"
     objecttolerance="10"
     gridtolerance="10"
     guidetolerance="10"
     inkscape:pageopacity="0"
     inkscape:pageshadow="2"
     inkscape:window-width="1855"
     inkscape:window-height="1056"
     id="namedview8577"
     showgrid="false"
     inkscape:zoom="0.99513412"
     inkscape:cx="468.62464"
     inkscape:cy="389.73061"
     inkscape:window-x="65"
     inkscape:window-y="24"
     inkscape:window-maximized="1"
     inkscape:current-layer="Layer_1" /><metadata
     id="metadata6938"><rdf:RDF><cc:Work
         rdf:about=""><dc:format>image/svg+xml</dc:format><dc:type
           rdf:resource="http://purl.org/dc/dcmitype/StillImage" /><dc:title /></cc:Work></rdf:RDF></metadata><defs
     id="defs6936" /><style
     id="style5566"
     type="text/css">
	.st0{fill:#191B22;}
	.st1{fill:none;stroke:#95B893;stroke-width:2;stroke-miterlimit:10;}
	.st2{fill:#FBC16C;stroke:#946F3A;stroke-width:4;stroke-linecap:round;stroke-linejoin:round;stroke-miterlimit:10;}
	.st3{fill:#876A4D;stroke:#3B3024;stroke-width:4;stroke-linecap:round;stroke-linejoin:round;stroke-miterlimit:10;}
	.st4{fill:#E09C5C;}
	.st5{fill:#6E5A3D;}
	.st6{fill:#E09C5C;stroke:#946F3A;stroke-width:4;stroke-linecap:round;stroke-linejoin:round;stroke-miterlimit:10;}
	.st7{fill:none;stroke:#E0E0E0;stroke-width:10;stroke-linecap:round;stroke-linejoin:round;stroke-miterlimit:10;}
	.st8{fill:#33281D;stroke:#3B3024;stroke-width:4;stroke-linecap:round;stroke-linejoin:round;stroke-miterlimit:10;}
	.st9{fill:#693131;stroke:#3B3024;stroke-width:4;stroke-linecap:round;stroke-linejoin:round;stroke-miterlimit:10;}
	.st10{fill:#FFFFFF;stroke:#7D7D65;stroke-width:4;stroke-linecap:round;stroke-linejoin:round;stroke-miterlimit:10;}
	.st11{fill:none;stroke:#402F19;stroke-width:5;stroke-linecap:round;stroke-linejoin:round;stroke-miterlimit:10;}
	.st12{fill:#544024;stroke:#946F3A;stroke-width:4;stroke-linecap:round;stroke-linejoin:round;stroke-miterlimit:10;}
	.st13{fill:#693131;stroke:#381916;stroke-width:4;stroke-linecap:round;stroke-linejoin:round;stroke-miterlimit:10;}
	.st14{fill:none;stroke:#3B3024;stroke-width:4;stroke-linecap:round;stroke-linejoin:round;stroke-miterlimit:10;}
	.st15{fill:#4A77AB;stroke:#31446E;stroke-width:4;stroke-linecap:round;stroke-linejoin:round;stroke-miterlimit:10;}
	.st16{fill:#51A1B5;}
	.st17{fill:#75BD8C;stroke:#31446E;stroke-width:4;stroke-linecap:round;stroke-linejoin:round;stroke-miterlimit:10;}
	.st18{fill:#E0B779;stroke:#31446E;stroke-width:4;stroke-linecap:round;stroke-linejoin:round;stroke-miterlimit:10;}
	.st19{fill:#75BD8C;stroke:#3A5E45;stroke-width:4;stroke-linecap:round;stroke-linejoin:round;stroke-miterlimit:10;}
	.st20{fill:#51A1B5;stroke:#3A5E45;stroke-width:4;stroke-linecap:round;stroke-linejoin:round;stroke-miterlimit:10;}
	.st21{fill:#4A77AB;}
	.st22{fill:#EBB548;stroke:#663F09;stroke-width:4;stroke-linecap:round;stroke-linejoin:round;stroke-miterlimit:10;}
	.st23{fill:#51A1B5;stroke:#31446E;stroke-width:4;stroke-linecap:round;stroke-linejoin:round;stroke-miterlimit:10;}
	.st24{fill:#A34C4C;stroke:#381916;stroke-width:4;stroke-linecap:round;stroke-linejoin:round;stroke-miterlimit:10;}
	.st25{fill:#FBC16C;stroke:#946F3A;stroke-width:2;stroke-linecap:round;stroke-linejoin:round;stroke-miterlimit:10;}
	.st26{fill:#E09C5C;stroke:#946F3A;stroke-width:2;stroke-linecap:round;stroke-linejoin:round;stroke-miterlimit:10;}
	.st27{fill:#FBE6C6;stroke:#668794;stroke-width:2;stroke-linecap:round;stroke-linejoin:round;stroke-miterlimit:10;}
	.st28{fill:#AD6A3B;stroke:#663F09;stroke-width:2;stroke-miterlimit:10;}
	.st29{fill:#FBE6C6;stroke:#668794;stroke-width:4;stroke-linecap:round;stroke-linejoin:round;stroke-miterlimit:10;}
	.st30{fill:#668794;}
	.st31{fill:#E68A4C;}
	.st32{fill:#805945;}
	.st33{fill:#FFFFFF;}
	.st34{fill:none;stroke:#FBD7A3;stroke-width:4;stroke-linecap:round;stroke-linejoin:round;stroke-miterlimit:10;}
	.st35{fill:none;stroke:#B58E67;stroke-width:4;stroke-linecap:round;stroke-linejoin:round;stroke-miterlimit:10;}
	.st36{fill:none;stroke:#51A1B5;stroke-width:4;stroke-linecap:round;stroke-linejoin:round;stroke-miterlimit:10;}
	.st37{fill:#6E5A3D;stroke:#3B3024;stroke-width:4;stroke-linecap:round;stroke-linejoin:round;stroke-miterlimit:10;}
	.st38{fill:none;stroke:#66A77C;stroke-width:12;stroke-linecap:round;stroke-linejoin:round;stroke-miterlimit:10;}
	.st39{fill:#381916;}
	.st40{fill:#2E2314;stroke:#2B2011;stroke-width:4;stroke-linecap:round;stroke-linejoin:round;stroke-miterlimit:10;}
	.st41{fill:#AD4949;}
	.st42{fill:#7D7D65;}
	.st43{fill:none;stroke:#7D7D65;stroke-width:4;stroke-linecap:round;stroke-linejoin:round;stroke-miterlimit:10;}
	.st44{fill:none;stroke:#946F3A;stroke-width:4;stroke-linecap:round;stroke-linejoin:round;stroke-miterlimit:10;}
	.st45{fill:#FBC16C;}
	.st46{fill:#FDD06E;}
	.st47{fill:#B9655A;}
	.st48{fill:#FFFFFF;stroke:#668794;stroke-width:4;stroke-linecap:round;stroke-linejoin:round;stroke-miterlimit:10;}
	.st49{fill:#544024;stroke:#3B3024;stroke-width:4;stroke-linecap:round;stroke-linejoin:round;stroke-miterlimit:10;}
	.st50{fill:none;stroke:#000000;stroke-miterlimit:10;}
	.st51{fill:#DCCEB5;stroke:#668794;stroke-width:4;stroke-linecap:round;stroke-linejoin:round;stroke-miterlimit:10;}
	.st52{fill:#402F19;}
	.st53{stroke:#3B3024;stroke-width:4;stroke-linecap:round;stroke-linejoin:round;stroke-miterlimit:10;}
	.st54{fill:#141A1C;}
	.st55{fill:#DCCEB5;}
	.st56{fill:none;stroke:#402F19;stroke-width:4;stroke-linecap:round;stroke-linejoin:round;stroke-miterlimit:10;}
	.st57{fill:#4A3F32;stroke:#292922;stroke-width:4;stroke-linecap:round;stroke-linejoin:round;stroke-miterlimit:10;}
	.st58{fill:#FFFFFF;stroke:#4A493C;stroke-width:4;stroke-linecap:round;stroke-linejoin:round;stroke-miterlimit:10;}
	.st59{fill:#FBDEB5;stroke:#946F3A;stroke-width:4;stroke-linecap:round;stroke-linejoin:round;stroke-miterlimit:10;}
	.st60{fill:none;stroke:#946F3A;stroke-width:2;stroke-linecap:round;stroke-linejoin:round;stroke-miterlimit:10;}
	.st61{fill:#A34C4C;stroke:#47271C;stroke-width:2;stroke-linecap:round;stroke-linejoin:round;stroke-miterlimit:10;}
	.st62{fill:#FBE6C6;stroke:#47271C;stroke-width:2;stroke-linecap:round;stroke-linejoin:round;stroke-miterlimit:10;}
	.st63{fill:#A34C4C;}
	.st64{fill:#FBE6C6;stroke:#946F3A;stroke-width:2;stroke-linecap:round;stroke-linejoin:round;stroke-miterlimit:10;}
	.st65{fill:#4D3B21;stroke:#2B2111;stroke-width:2;stroke-linecap:round;stroke-linejoin:round;stroke-miterlimit:10;}
	.st66{fill:#594726;stroke:#45331B;stroke-width:4;stroke-linecap:round;stroke-linejoin:round;stroke-miterlimit:10;}
	.st67{fill:none;stroke:#45331B;stroke-width:3;stroke-linecap:round;stroke-linejoin:round;stroke-miterlimit:10;}
	.st68{fill:none;stroke:#3B3024;stroke-width:2;stroke-linecap:round;stroke-linejoin:round;stroke-miterlimit:10;}
	.st69{fill:#31446E;stroke:#31446E;stroke-width:4;stroke-linecap:round;stroke-linejoin:round;stroke-miterlimit:10;}
	.st70{fill:none;stroke:#31446E;stroke-width:3;stroke-linecap:round;stroke-linejoin:round;stroke-miterlimit:10;}
	.st71{fill:none;stroke:#FBF0D3;stroke-width:3;stroke-linecap:round;stroke-linejoin:round;stroke-miterlimit:10;}
	.st72{fill:#4A4439;}
	.st73{fill:#FBE6C6;stroke:#28353B;stroke-width:8;stroke-linecap:round;stroke-linejoin:round;stroke-miterlimit:10;}
	.st74{fill:#C99F85;}
	.st75{fill:none;stroke:#FBD7A3;stroke-width:5;stroke-linecap:round;stroke-linejoin:round;stroke-miterlimit:10;}
	.st76{fill:none;stroke:#FFFFFF;stroke-width:4;stroke-linecap:round;stroke-linejoin:round;stroke-miterlimit:10;}
	.st77{fill:none;stroke:#BF9649;stroke-width:4;stroke-linecap:round;stroke-linejoin:round;stroke-miterlimit:10;}
	.st78{fill:#F1614E;stroke:#9C3B2D;stroke-width:2;stroke-linecap:round;stroke-linejoin:round;stroke-miterlimit:10;}
	.st79{fill:#F47C53;stroke:#FDBC61;stroke-width:4;stroke-linecap:round;stroke-linejoin:round;stroke-miterlimit:10;}
	.st80{fill:#587FAA;stroke:#000000;stroke-width:2;stroke-linecap:round;stroke-linejoin:round;stroke-miterlimit:10;}
	.st81{fill:none;stroke:#2D3F68;stroke-width:3;stroke-linecap:round;stroke-linejoin:round;stroke-miterlimit:10;}
	.st82{fill:#2D3F68;}
	.st83{fill:#EBB548;stroke:#663F09;stroke-width:3.3066;stroke-linecap:round;stroke-linejoin:round;stroke-miterlimit:10;}
	.st84{fill:#AD6A3B;stroke:#663F09;stroke-width:1.6533;stroke-miterlimit:10;}
	.st85{fill:#FBC16C;stroke:#946F3A;stroke-width:2.3877;stroke-linecap:round;stroke-linejoin:round;stroke-miterlimit:10;}
	.st86{fill:#876A4D;stroke:#3B3024;stroke-width:2.3877;stroke-linecap:round;stroke-linejoin:round;stroke-miterlimit:10;}
	.st87{fill:#E09C5C;stroke:#946F3A;stroke-width:2.3877;stroke-linecap:round;stroke-linejoin:round;stroke-miterlimit:10;}
	.st88{fill:none;stroke:#E0E0E0;stroke-width:5.9692;stroke-linecap:round;stroke-linejoin:round;stroke-miterlimit:10;}
	.st89{fill:#33281D;stroke:#3B3024;stroke-width:2.3877;stroke-linecap:round;stroke-linejoin:round;stroke-miterlimit:10;}
	.st90{fill:#693131;stroke:#3B3024;stroke-width:2.3877;stroke-linecap:round;stroke-linejoin:round;stroke-miterlimit:10;}
	.st91{fill:#FFFFFF;stroke:#7D7D65;stroke-width:2.3877;stroke-linecap:round;stroke-linejoin:round;stroke-miterlimit:10;}
	.st92{fill:none;stroke:#402F19;stroke-width:2.9846;stroke-linecap:round;stroke-linejoin:round;stroke-miterlimit:10;}
	.st93{fill:#544024;stroke:#946F3A;stroke-width:2.3877;stroke-linecap:round;stroke-linejoin:round;stroke-miterlimit:10;}
	.st94{fill:#693131;stroke:#381916;stroke-width:2.3877;stroke-linecap:round;stroke-linejoin:round;stroke-miterlimit:10;}
	.st95{fill:none;stroke:#3B3024;stroke-width:2.3877;stroke-linecap:round;stroke-linejoin:round;stroke-miterlimit:10;}
	.st96{fill:none;stroke:#FBD7A3;stroke-width:2.3877;stroke-linecap:round;stroke-linejoin:round;stroke-miterlimit:10;}
	.st97{fill:none;stroke:#B58E67;stroke-width:2.3877;stroke-linecap:round;stroke-linejoin:round;stroke-miterlimit:10;}
	.st98{fill:#6E5A3D;stroke:#3B3024;stroke-width:2.3877;stroke-linecap:round;stroke-linejoin:round;stroke-miterlimit:10;}
	.st99{fill:#E09C5C;stroke:#946F3A;stroke-width:2.2827;stroke-linecap:round;stroke-linejoin:round;stroke-miterlimit:10;}
	.st100{fill:#FFFFFF;stroke:#668794;stroke-width:2.2827;stroke-linecap:round;stroke-linejoin:round;stroke-miterlimit:10;}
	.st101{fill:#FBC16C;stroke:#946F3A;stroke-width:2.2827;stroke-linecap:round;stroke-linejoin:round;stroke-miterlimit:10;}
	.st102{fill:#544024;stroke:#3B3024;stroke-width:2.2827;stroke-linecap:round;stroke-linejoin:round;stroke-miterlimit:10;}
	.st103{fill:#693131;stroke:#381916;stroke-width:2.2827;stroke-linecap:round;stroke-linejoin:round;stroke-miterlimit:10;}
	.st104{fill:#FFFFFF;stroke:#7D7D65;stroke-width:2.2827;stroke-linecap:round;stroke-linejoin:round;stroke-miterlimit:10;}
	.st105{fill:none;stroke:#000000;stroke-width:0.5707;stroke-miterlimit:10;}
	.st106{fill:#FBC16C;stroke:#946F3A;stroke-width:3.5649;stroke-linecap:round;stroke-linejoin:round;stroke-miterlimit:10;}
	.st107{stroke:#3B3024;stroke-width:3.5649;stroke-linecap:round;stroke-linejoin:round;stroke-miterlimit:10;}
	.st108{fill:#FBE6C6;stroke:#668794;stroke-width:2.2827;stroke-linecap:round;stroke-linejoin:round;stroke-miterlimit:10;}
	.st109{fill:#DCCEB5;stroke:#668794;stroke-width:2.2827;stroke-linecap:round;stroke-linejoin:round;stroke-miterlimit:10;}
	.st110{fill:none;stroke:#946F3A;stroke-width:3.5649;stroke-linecap:round;stroke-linejoin:round;stroke-miterlimit:10;}
	.st111{fill:#FFFFFF;stroke:#4A493C;stroke-width:3.5649;stroke-linecap:round;stroke-linejoin:round;stroke-miterlimit:10;}
	.st112{fill:#FBDEB5;stroke:#946F3A;stroke-width:3.5649;stroke-linecap:round;stroke-linejoin:round;stroke-miterlimit:10;}
	.st113{fill:#FBC16C;stroke:#946F3A;stroke-width:1.7824;stroke-linecap:round;stroke-linejoin:round;stroke-miterlimit:10;}
	.st114{fill:none;stroke:#946F3A;stroke-width:1.7824;stroke-linecap:round;stroke-linejoin:round;stroke-miterlimit:10;}
	.st115{fill:#FBE6C6;stroke:#668794;stroke-width:3.5649;stroke-linecap:round;stroke-linejoin:round;stroke-miterlimit:10;}
	.st116{fill:#A34C4C;stroke:#47271C;stroke-width:1.7824;stroke-linecap:round;stroke-linejoin:round;stroke-miterlimit:10;}
	.st117{fill:#FBE6C6;stroke:#47271C;stroke-width:1.7824;stroke-linecap:round;stroke-linejoin:round;stroke-miterlimit:10;}
	.st118{fill:#FBE6C6;stroke:#946F3A;stroke-width:1.7824;stroke-linecap:round;stroke-linejoin:round;stroke-miterlimit:10;}
	.st119{fill:#51A1B5;stroke:#31446E;stroke-width:3.5649;stroke-linecap:round;stroke-linejoin:round;stroke-miterlimit:10;}
	.st120{fill:#4D3B21;stroke:#2B2111;stroke-width:1.7824;stroke-linecap:round;stroke-linejoin:round;stroke-miterlimit:10;}
	.st121{fill:#876A4D;stroke:#3B3024;stroke-width:3.5649;stroke-linecap:round;stroke-linejoin:round;stroke-miterlimit:10;}
	.st122{fill:#594726;stroke:#45331B;stroke-width:3.5649;stroke-linecap:round;stroke-linejoin:round;stroke-miterlimit:10;}
	.st123{fill:none;stroke:#45331B;stroke-width:2.6737;stroke-linecap:round;stroke-linejoin:round;stroke-miterlimit:10;}
	.st124{fill:none;stroke:#3B3024;stroke-width:1.7824;stroke-linecap:round;stroke-linejoin:round;stroke-miterlimit:10;}
	.st125{fill:#31446E;stroke:#31446E;stroke-width:3.5649;stroke-linecap:round;stroke-linejoin:round;stroke-miterlimit:10;}
	.st126{fill:none;stroke:#31446E;stroke-width:2.6737;stroke-linecap:round;stroke-linejoin:round;stroke-miterlimit:10;}
	.st127{fill:none;stroke:#FBF0D3;stroke-width:2.6737;stroke-linecap:round;stroke-linejoin:round;stroke-miterlimit:10;}
	.st128{fill:#FBE6C6;stroke:#28353B;stroke-width:7.1298;stroke-linecap:round;stroke-linejoin:round;stroke-miterlimit:10;}
	.st129{fill:none;stroke:#FBD7A3;stroke-width:2.8533;stroke-linecap:round;stroke-linejoin:round;stroke-miterlimit:10;}
	.st130{fill:#E09C5C;stroke:#946F3A;stroke-width:3.2923;stroke-linecap:round;stroke-linejoin:round;stroke-miterlimit:10;}
	.st131{fill:#FBC16C;stroke:#946F3A;stroke-width:3.2923;stroke-linecap:round;stroke-linejoin:round;stroke-miterlimit:10;}
	.st132{fill:none;stroke:#402F19;stroke-width:4.3269;stroke-linecap:round;stroke-linejoin:round;stroke-miterlimit:10;}
	.st133{fill:#FFFFFF;stroke:#7D7D65;stroke-width:3.2923;stroke-linecap:round;stroke-linejoin:round;stroke-miterlimit:10;}
	.st134{fill:none;stroke:#FBD7A3;stroke-width:4.1153;stroke-linecap:round;stroke-linejoin:round;stroke-miterlimit:10;}
	.st135{fill:none;stroke:#FFFFFF;stroke-width:2.2827;stroke-linecap:round;stroke-linejoin:round;stroke-miterlimit:10;}
	.st136{fill:none;stroke:#FBD7A3;stroke-width:4.4561;stroke-linecap:round;stroke-linejoin:round;stroke-miterlimit:10;}
	.st137{fill:none;stroke:#BF9649;stroke-width:3.5649;stroke-linecap:round;stroke-linejoin:round;stroke-miterlimit:10;}
	.st138{fill:#4A77AB;stroke:#132137;stroke-width:3;stroke-linecap:round;stroke-linejoin:round;stroke-miterlimit:10;}
	.st139{fill:#75BD8C;stroke:#132137;stroke-width:4;stroke-linecap:round;stroke-linejoin:round;stroke-miterlimit:10;}
	.st140{fill:#E0B779;stroke:#132137;stroke-width:4;stroke-linecap:round;stroke-linejoin:round;stroke-miterlimit:10;}
	.st141{fill:#75BD8C;stroke:#1C3B28;stroke-width:3;stroke-linecap:round;stroke-linejoin:round;stroke-miterlimit:10;}
	.st142{fill:#51A1B5;stroke:#1C3B28;stroke-width:4;stroke-linecap:round;stroke-linejoin:round;stroke-miterlimit:10;}
	.st143{fill:#F1614E;}
	.st144{fill:#9C3B2D;}
	.st145{fill:#587FAA;stroke:#000000;stroke-width:2;stroke-miterlimit:10;}
	.st146{fill:#191B22;stroke:#000000;stroke-width:2;stroke-linecap:round;stroke-linejoin:round;stroke-miterlimit:10;}
	.st147{fill:#587FAA;}
	.st148{fill:#95B893;}
	.st149{fill:none;stroke:#95B893;stroke-width:3.2504;stroke-miterlimit:10;}
	.st150{fill:#A7658D;stroke:#4B2254;stroke-width:4;stroke-linecap:round;stroke-linejoin:round;stroke-miterlimit:10;}
	.st151{fill:#A8C875;stroke:#4B2254;stroke-width:2.7503;stroke-linecap:round;stroke-linejoin:round;stroke-miterlimit:10;}
	.st152{fill:#CE8C59;stroke:#381916;stroke-width:4;stroke-linecap:round;stroke-linejoin:round;stroke-miterlimit:10;}
	.st153{fill:#CE8C59;stroke:#587FAA;stroke-width:4;stroke-linecap:round;stroke-linejoin:round;stroke-miterlimit:10;}
	.st154{fill:none;stroke:#95B893;stroke-width:2;stroke-miterlimit:10;stroke-dasharray:3.9,3.9;}
	.st155{fill:none;stroke:#95B893;stroke-width:2;stroke-miterlimit:10;stroke-dasharray:4.0554,4.0554;}
	.st156{fill:none;stroke:#95B893;stroke-width:2;stroke-miterlimit:10;stroke-dasharray:3.9514,3.9514;}
	.st157{fill:none;stroke:#FFFFFF;stroke-width:2;stroke-linecap:round;stroke-linejoin:round;stroke-miterlimit:10;}
	.st158{fill:#F4A679;stroke:#668794;stroke-width:2.2827;stroke-linecap:round;stroke-linejoin:round;stroke-miterlimit:10;}
	.st159{fill:#965E8C;stroke:#5C3556;stroke-width:2.2827;stroke-linecap:round;stroke-linejoin:round;stroke-miterlimit:10;}
	.st160{fill:#FBE6C6;stroke:#5C3556;stroke-width:2.2827;stroke-linecap:round;stroke-linejoin:round;stroke-miterlimit:10;}
	.st161{fill:none;stroke:#B895A6;stroke-width:2;stroke-linecap:round;stroke-linejoin:round;stroke-miterlimit:10;}
	.st162{fill:none;stroke:#5C3556;stroke-width:2.2827;stroke-linecap:round;stroke-linejoin:round;stroke-miterlimit:10;}
	.st163{fill:#FBE6C6;}
	.st164{fill:#E14741;stroke:#552814;stroke-width:3.2923;stroke-linecap:round;stroke-linejoin:round;stroke-miterlimit:10;}
	.st165{fill:#E14741;stroke:#2F261B;stroke-width:3.2923;stroke-linecap:round;stroke-linejoin:round;stroke-miterlimit:10;}
	.st166{fill:none;stroke:#F7CEB2;stroke-width:2;stroke-linecap:round;stroke-linejoin:round;stroke-miterlimit:10;}
	.st167{fill:#B4DCF5;}
	.st168{fill:none;stroke:#E69985;stroke-width:3.2923;stroke-linecap:round;stroke-linejoin:round;stroke-miterlimit:10;}
	.st169{fill:none;stroke:#FFFFFF;stroke-width:2;stroke-linecap:round;stroke-linejoin:round;}
	.st170{fill:none;stroke:#FFFFFF;stroke-width:2;stroke-linecap:round;stroke-linejoin:round;stroke-dasharray:5.2622,10.5244;}
	.st171{fill:none;stroke:#FFFFFF;stroke-width:2;stroke-linecap:round;stroke-linejoin:round;stroke-dasharray:5.0612,10.1224;}
	.st172{fill:none;stroke:#FFFFFF;stroke-width:2;stroke-linecap:round;stroke-linejoin:round;stroke-dasharray:4.9629,9.9258;}
</style><rect
     style="fill:#191b22"
     id="rect6214"
     height="803"
     width="1195.8"
     class="st0"
     y="0"
     x="1.0142425" /><path
     style="fill:#e09c5c;stroke:#946f3a;stroke-width:4;stroke-linecap:round;stroke-linejoin:round;stroke-miterlimit:10"
     id="path6218"
     d="m 419.21425,718.72051 c 0,0 1,40 2,51 1,11 3,16 20,17 17,1 41,-2 50,-4 9,-2 16,-6 14,-29 -2,-23 -4,-51 -4,-51"
     class="st6"
     inkscape:connector-curvature="0" /><path
     style="fill:#fbc16c;stroke:#946f3a;stroke-width:4;stroke-linecap:round;stroke-linejoin:round;stroke-miterlimit:10"
     id="path6220"
     d="m 504.21425,771.52051 -0.1,-0.6 c -1.5,-5.7 -4.5,-7 -8,-6.3 -4.8,1 -6.1,7.7 -6.9,16.7 0,0.4 -0.1,0.8 -0.1,1.3 l 0.7,0.3 c 0.4,-0.1 0.9,-0.2 1.3,-0.3 5.9,-1.2 10.9,-3.4 13.1,-11.1 z"
     class="st2"
     inkscape:connector-curvature="0" /><path
     style="fill:#fbc16c;stroke:#946f3a;stroke-width:4;stroke-linecap:round;stroke-linejoin:round;stroke-miterlimit:10"
     id="path6222"
     d="m 510.81425,399.72051 c 46,-5 79,-28 84,-32 0,0 -14,-12 -3,-20 11,-8 18,2 18,2 0,0 23.5,-29.9 43.5,-13.9 20,16 27.5,32.9 20.5,48.9 -7,16 -52,72 -147,85"
     class="st2"
     inkscape:connector-curvature="0" /><path
     style="fill:#e09c5c"
     id="path6224"
     d="m 239.81425,697.72051 c -16,15 -41,23 -54,5 -13,-18 -4,-26 -7,-30 -3,-4 -21,8 -13,31 8,23 54,48 97,14"
     class="st4"
     inkscape:connector-curvature="0" /><path
     style="fill:#fbc16c;stroke:#946f3a;stroke-width:4;stroke-linecap:round;stroke-linejoin:round;stroke-miterlimit:10"
     id="path6226"
     d="m 500.21425,361.82051 c 0,0 34.6,70.9 43.1,175.4 7.2,89 15,139 -46,168 -61,29 -142,24 -180,25 -38,1 -78,-4 -88,-47 -10,-43 0.5,-76.5 0.5,-76.5 0,0 1.4,-71.2 -2.1,-82.7 -3.5,-11.5 -9.2,-28.7 -9.2,-28.7 0,0 -5.7,40.1 -35.5,53.6 -29.8,13.6 -56.1,0.8 -53.9,-36.5 0,0 -25.5,-42.6 -37.600004,-79.9 -12.1,-37.3 19.800004,-73.9 78.300004,-58.8 2,-71 63.6,-130.7 149.1,-137.7 85.4,-7.1 106.3,38.7 151.9,40.7 44,2 75,-12 98,-35 23,-23 70,-53 107,-29 0,0 18,-6 20,10 2,16 -7,16 -12,19 0,0 7,22 -7,25 -14,3 -12,-18 -12,-18 0,0 -23,-3 -42,27 -19,30 -47.2,70.2 -122.6,86.1 -16.1,1.4 -29.5,-3.9 -29.5,-3.9"
     class="st2"
     inkscape:connector-curvature="0" /><path
     style="fill:#e09c5c;stroke:#946f3a;stroke-width:4;stroke-linecap:round;stroke-linejoin:round;stroke-miterlimit:10"
     id="path6228"
     d="m 259.81425,704.72051 c 0,23 -4,53 -5,64 -1,11 3,22.4 21,23 28,1 82,5 87,-12 6.3,-21.6 5,-58 0,-70"
     class="st6"
     inkscape:connector-curvature="0" /><path
     style="fill:#fbc16c;stroke:#946f3a;stroke-width:4;stroke-linecap:round;stroke-linejoin:round;stroke-miterlimit:10"
     id="path6230"
     d="m 295.01425,792.42051 c 0.8,-9.7 1.8,-15.7 6.8,-16.7 5,-1 8.8,3.1 8.9,17.1"
     class="st2"
     inkscape:connector-curvature="0" /><path
     style="fill:#fbc16c;stroke:#946f3a;stroke-width:4;stroke-linecap:round;stroke-linejoin:round;stroke-miterlimit:10"
     id="path6232"
     d="m 311.01425,792.42051 c 0.8,-9.7 1.8,-15.7 6.8,-16.7 5,-1 8.8,3.1 8.9,17.1"
     class="st2"
     inkscape:connector-curvature="0" /><path
     style="fill:#fbc16c;stroke:#946f3a;stroke-width:4;stroke-linecap:round;stroke-linejoin:round;stroke-miterlimit:10"
     id="path6234"
     d="m 326.81425,792.72051 c 0.8,-9.7 2,-17 7,-18 5,-1 8.9,2.1 9,16"
     class="st2"
     inkscape:connector-curvature="0" /><path
     style="fill:#fbc16c"
     id="path6236"
     d="m 332.61425,746.52051 -15.4,0 c -7.8,0 -14.2,-6.4 -14.2,-14.2 l 0,0 c 0,-7.8 6.4,-14.2 14.2,-14.2 l 15.4,0 c 7.8,0 14.2,6.4 14.2,14.2 l 0,0 c 0,7.8 -6.4,14.2 -14.2,14.2 z"
     class="st45"
     inkscape:connector-curvature="0" /><path
     style="fill:#e09c5c"
     id="path6238"
     d="m 127.01425,433.92051 c 7.3,9.1 20.6,38.2 19.8,61 -0.9,22.9 23.8,32.8 36.8,13 13,-19.8 16.6,-58.4 7.6,-77.2 -9,-18.9 -13.9,-26 -13.9,-26 0,0 -4.9,9 -17.5,10.8 -12.6,1.8 -13,-3.1 -17.3,-9.8 0,0 0.6,7.4 -10.6,11.5 -11.2,4.2 -14.8,-5 -14.8,-5 0,0 2.7,12.7 9.9,21.7 z"
     class="st4"
     inkscape:connector-curvature="0" /><path
     style="fill:#e09c5c"
     id="path6240"
     d="m 309.31425,728.32051 c -21.3,0 -36.8,-2.7 -48.9,-8.4 -15.4,-7.3 -25,-19.4 -29.1,-37.2 -9.8,-42 0.4,-75.1 0.5,-75.4 l 0.1,-0.3 0,-0.3 c 0,0 0.1,-3.7 0.1,-9.7 13.9,0.5 33.3,2.8 50.3,10.8 16.8,7.9 27.4,19.6 31.6,34.6 9.3,33.4 33.5,49.6 74.1,49.6 0,0 0,0 0,0 12.6,0 27,-1.5 43.9,-4.6 8.6,-1.6 17.1,-2.8 25.3,-4 38.7,-5.6 72.8,-10.5 87.9,-47.9 -3.3,28.9 -14.8,51.7 -48.6,67.8 -51.3,24.4 -116.2,24.5 -159.1,24.6 -7.7,0 -14.3,0 -20.1,0.2 -2.9,0.1 -5.5,0.2 -8,0.2 l 0,0 z"
     class="st4"
     inkscape:connector-curvature="0" /><path
     style="fill:#2e2314;stroke:#2b2011;stroke-width:4;stroke-linecap:round;stroke-linejoin:round;stroke-miterlimit:10"
     id="path6242"
     d="m 417.81425,390.12051 c 1.3,-8.5 2,-14.7 -7.8,-12.6 -9.8,2.1 -69.8,18 -80.5,20.3 -10.8,2.3 -8.7,12.1 1.8,18 10.5,5.9 39.7,23.2 51.7,21.6 12,-1.6 22.7,-3.8 27.6,-19.2 4.9,-15.3 7.2,-28.1 7.2,-28.1 z"
     class="st40"
     inkscape:connector-curvature="0" /><g
     transform="translate(-77.185754,15.820514)"
     id="g6244"><path
       style="fill:#ad4949"
       id="path6246"
       d="m 458.6,419.7 c -11.4,0 -36.3,-14.2 -46.9,-20.2 l -2.2,-1.3 c -5.1,-2.9 -8.4,-7.1 -7.9,-10.2 0.3,-2 2.3,-3.4 5.5,-4.1 5.5,-1.2 24,-5.9 41.8,-10.5 l 3.8,-1 c 15.9,4.2 28.4,14.9 33.4,28.7 l -0.2,0.7 c -4.5,14 -13.6,16.2 -25.9,17.8 -0.5,0.1 -0.9,0.1 -1.4,0.1 l 0,0 z"
       class="st41"
       inkscape:connector-curvature="0" /></g><g
     transform="translate(-77.185754,15.820514)"
     id="g6248"><path
       style="fill:#ffffff"
       id="path6250"
       d="m 404,397 c -3.6,-2.6 -5.6,-6.3 -5,-9.5 0.5,-2.8 2.7,-4.7 6.3,-5.4 5.8,-1.2 25.1,-6.2 43.7,-11 8.9,-2.3 17.5,-4.5 24.3,-6.2 l 3.4,15 L 404,397 Z"
       class="st33"
       inkscape:connector-curvature="0" /><path
       style="fill:#7d7d65"
       id="path6252"
       d="m 471.9,367.4 2.5,11.1 -70,16.4 c -2.5,-2.1 -3.9,-4.7 -3.5,-6.9 0.5,-2.6 3.2,-3.5 4.8,-3.9 5.8,-1.2 25.1,-6.2 43.8,-11 8.2,-2.1 16,-4.1 22.4,-5.7 m 3,-4.9 c -20.4,5.1 -61.2,15.8 -70,17.7 -10.3,2.2 -10.6,13 -1.3,19 l 75.6,-17.8 -4.3,-18.9 0,0 z"
       class="st42"
       inkscape:connector-curvature="0" /></g><path
     style="fill:#fbc16c;stroke:#946f3a;stroke-width:4;stroke-linecap:round;stroke-linejoin:round;stroke-miterlimit:10"
     id="path6254"
     d="m 215.61425,319.92051 c -20.7,3.4 -36.9,-0.3 -43.7,-27.4 -6.8,-27.1 17,-58.9 51.2,-71.3 34.2,-12.4 68,-2.3 68,-2.3 0,0 9.5,-22.5 12.8,-35.5 3.3,-13 13.3,-14.1 23.6,5.2 0,0 28.8,-4.1 32.3,26.8 3.6,30.9 -20.7,46.4 -20.7,46.4"
     class="st2"
     inkscape:connector-curvature="0" /><path
     style="fill:#fbc16c;stroke:#946f3a;stroke-width:4;stroke-linecap:round;stroke-linejoin:round;stroke-miterlimit:10"
     id="path6256"
     d="m 327.61425,188.52051 c 4.3,10.3 2.9,22.9 2.7,27"
     class="st2"
     inkscape:connector-curvature="0" /><g
     transform="translate(-77.185754,15.820514)"
     id="g6258"><path
       id="path6260"
       d="m 358.6,376.9 c 2.2,5.7 6.2,9.9 8.9,8.3 2.7,-1.6 2.9,-5.7 0.4,-12.4 -2.4,-6.6 -13.6,-29.8 -16.6,-34.3 -3,-4.5 -6.4,-5.8 -9.1,-4.2 -2.7,1.6 -1.9,5.5 -0.1,9.2 1.9,3.8 16.5,33.4 16.5,33.4 z"
       inkscape:connector-curvature="0" /></g><g
     transform="translate(-77.185754,15.820514)"
     id="g6262"><path
       style="fill:#ffffff"
       id="path6264"
       d="m 387.3,470.6 c -4.3,0 -8.8,-0.5 -13.2,-1.6 -21.2,-5.2 -32.9,-21.5 -36.5,-34 -2.3,-8 -1.6,-14.9 2,-18.5 3.2,-3.3 6.7,-5 10.2,-5 7.5,0 14.4,7.2 17.8,11.5 7.6,9.5 14.8,14.3 21.4,14.3 5.3,0 9.9,-3 13.7,-9 10,-15.4 12.7,-34.1 8.2,-55.4 -1.5,-7.1 0.3,-11.2 2.1,-13.4 1.8,-2.3 4.5,-3.6 7.3,-3.6 1.6,0 3,0.4 4.2,1.2 18.2,11.8 20.2,52 13.6,74.4 -5.6,18.8 -23.9,39.1 -50.8,39.1 z"
       class="st33"
       inkscape:connector-curvature="0" /><path
       style="fill:#7d7d65"
       id="path6266"
       d="m 420.2,357.9 c 1.2,0 2.2,0.3 3.1,0.9 7.6,4.9 13,16 15.2,31.2 2,13.6 1,29.3 -2.5,41 -2.9,9.9 -9.1,19.2 -17.3,26 -9.1,7.6 -20,11.6 -31.5,11.6 -4.2,0 -8.4,-0.5 -12.7,-1.6 -20.4,-5 -31.6,-20.7 -35,-32.6 -2.1,-7.2 -1.5,-13.5 1.5,-16.5 2.9,-2.9 5.8,-4.4 8.8,-4.4 6.9,0 13.7,7.5 16.3,10.7 8,10 15.7,15 22.9,15 6,0 11.2,-3.3 15.4,-9.9 10.3,-15.9 13.1,-35 8.4,-56.9 -1.1,-4.9 -0.5,-9.1 1.7,-11.7 1.5,-1.8 3.6,-2.8 5.7,-2.8 m 0,-4 c -6.7,0 -14.1,6.4 -11.3,19.4 3.6,16.6 3.6,36 -7.9,53.8 -3.8,5.9 -8,8.1 -12.1,8.1 -8.2,0 -16.1,-8.8 -19.8,-13.5 -3.8,-4.8 -11.1,-12.2 -19.4,-12.2 -3.8,0 -7.7,1.5 -11.7,5.6 -11,11.3 2,47.6 35.5,55.8 4.7,1.2 9.3,1.7 13.7,1.7 26.7,0 46.6,-19.8 52.7,-40.5 7.1,-24 4.6,-64.4 -14.4,-76.7 -1.5,-1 -3.4,-1.5 -5.3,-1.5 l 0,0 z"
       class="st42"
       inkscape:connector-curvature="0" /></g><path
     style="fill:none;stroke:#7d7d65;stroke-width:4;stroke-linecap:round;stroke-linejoin:round;stroke-miterlimit:10"
     id="path6268"
     d="m 290.11425,457.32051 c 6.5,1.7 19.4,2 29.8,-6.6"
     class="st43"
     inkscape:connector-curvature="0" /><path
     style="fill:none;stroke:#946f3a;stroke-width:4;stroke-linecap:round;stroke-linejoin:round;stroke-miterlimit:10"
     id="path6270"
     d="m 173.31425,408.82051 c -3.7,5 -10.1,7.9 -16.3,7.2 -6.2,-0.6 -11.9,-4.7 -14.5,-10.4 -1.1,5.4 -5.3,10.2 -10.6,11.5 -5.3,1.3 -11.4,-0.7 -14.8,-5 1.6,13 12,22.7 16.5,35"
     class="st44"
     inkscape:connector-curvature="0" /><path
     style="fill:#e68a4c"
     id="path6272"
     d="m 263.31425,420.02051 -17.1,6.5 c -5,1.9 -10.6,-0.6 -12.4,-5.6 l 0,0 c -1.9,-5 0.6,-10.6 5.6,-12.4 l 17.1,-6.5 c 5,-1.9 10.6,0.6 12.4,5.6 l 0,0 c 1.9,4.9 -0.6,10.5 -5.6,12.4 z"
     class="st31"
     inkscape:connector-curvature="0" /><path
     style="fill:none;stroke:#fbd7a3;stroke-width:4;stroke-linecap:round;stroke-linejoin:round;stroke-miterlimit:10"
     id="path6274"
     d="m 625.31425,218.52051 c 7.3,-2.8 14.1,-4.3 19.2,-3.8"
     class="st34"
     inkscape:connector-curvature="0" /><path
     style="fill:none;stroke:#fbd7a3;stroke-width:4;stroke-linecap:round;stroke-linejoin:round;stroke-miterlimit:10"
     id="path6276"
     d="m 561.31425,267.62051 c 11.7,-11.4 21.9,-20.7 31.6,-29.6 3.9,-3.5 8.7,-7.1 13.9,-10.3"
     class="st34"
     inkscape:connector-curvature="0" /><path
     style="fill:none;stroke:#fbd7a3;stroke-width:4;stroke-linecap:round;stroke-linejoin:round;stroke-miterlimit:10"
     id="path6278"
     d="m 471.21425,293.12051 c 15.7,1.4 33.6,-0.1 52.7,-6.6"
     class="st34"
     inkscape:connector-curvature="0" /><path
     style="fill:none;stroke:#fbd7a3;stroke-width:4;stroke-linecap:round;stroke-linejoin:round;stroke-miterlimit:10"
     id="path6280"
     d="m 361.61425,250.82051 c 19.9,3.5 36.4,12.2 56.1,23.6"
     class="st34"
     inkscape:connector-curvature="0" /><g
     transform="translate(-77.185754,15.820514)"
     id="g6282"><path
       style="fill:#fbc16c;stroke:#946f3a;stroke-width:4;stroke-linecap:round;stroke-linejoin:round;stroke-miterlimit:10"
       id="path6284"
       d="m 311,486.9 c -48,22 -68,37 -57,78 11,41 59,41 59,41 0,0 -8,25 18,28 26,3 55,-5 56,-41 1,-36 -20,-61 -63,-65"
       class="st2"
       inkscape:connector-curvature="0" /><path
       style="fill:#fbc16c;stroke:#946f3a;stroke-width:4;stroke-linecap:round;stroke-linejoin:round;stroke-miterlimit:10"
       id="path6286"
       d="m 313,605.9 c 10,2 25,2 25,2"
       class="st2"
       inkscape:connector-curvature="0" /><path
       style="fill:#fdd06e"
       id="path6288"
       d="m 354.2,548.6 6.5,6.8 c 4.9,5.1 4.7,13.3 -0.4,18.2 l -1.9,1.8 c -5.1,4.9 -13.3,4.7 -18.2,-0.4 l -6.5,-6.8 c -4.9,-5.1 -4.7,-13.3 0.4,-18.2 l 1.9,-1.8 c 5.1,-4.9 13.3,-4.7 18.2,0.4 z"
       class="st46"
       inkscape:connector-curvature="0" /></g><path
     style="fill:#b9655a"
     id="path6290"
     d="m 396.81425,426.32051 -6.5,2.6 c -4.9,1.9 -10.5,-0.5 -12.4,-5.4 l -0.7,-1.8 c -1.9,-4.9 0.5,-10.5 5.4,-12.4 l 6.5,-2.6 c 4.9,-1.9 10.5,0.5 12.4,5.4 l 0.7,1.8 c 2,4.9 -0.5,10.5 -5.4,12.4 z"
     class="st47"
     inkscape:connector-curvature="0" /><path
     style="fill:#fbc16c;stroke:#946f3a;stroke-width:4;stroke-linecap:round;stroke-linejoin:round;stroke-miterlimit:10"
     id="path6292"
     d="m 218.51425,495.22051 c 1.8,-14 0.6,-22.1 0.6,-22.1"
     class="st2"
     inkscape:connector-curvature="0" /><path
     style="fill:#ffffff"
     id="path6908"
     d="m 1045.5142,470.62051 -238.49995,0 c -43.2,0 -78.5,-35.3 -78.5,-78.5 l 0,-147.7 c 0,-43.2 35.3,-78.5 78.5,-78.5 l 238.59995,0 c 43.2,0 78.5,35.3 78.5,78.5 l 0,147.6 c 0,43.3 -35.4,78.6 -78.6,78.6 z"
     class="st33"
     inkscape:connector-curvature="0" /><path
     style="fill:#ffffff"
     id="path6912"
     d="m 738.91425,368.62051 c -36.8,30.6 -91.1,51.3 -132.1,33.6 0,0 29,44.5 155.4,12.8 l -23.3,-46.4 z"
     class="st33"
     inkscape:connector-curvature="0" /></svg>